<svg width="358" height="137" viewBox="0 0 358 137" fill="none" xmlns="http://www.w3.org/2000/svg">
<rect width="358" height="137" rx="5" fill="white"/>
<path d="M99.0855 68.5393C99.0855 62.1908 103.984 57.6816 110.846 57.6816C115.259 57.6816 118.753 59.432 120.288 62.8575C120.291 62.8677 114.647 64.3548 114.647 64.3548C113.594 63.2198 112.268 62.6968 110.805 62.6968C107.707 62.6968 105.277 64.854 105.277 68.5358C105.277 72.2177 107.707 74.3749 110.805 74.3749C112.264 74.3749 113.584 73.8792 114.633 72.7442L120.274 74.0911C118.736 77.438 115.256 79.39 110.842 79.39C103.984 79.39 99.082 74.8843 99.082 68.5324L99.0855 68.5393Z" fill="#012A38"/>
<path d="M145.074 67.0112V79.0824H138.962V67.9513C138.962 64.5429 137.392 62.9738 134.688 62.9738C131.748 62.9738 129.632 64.7788 129.632 68.659V79.0858H123.52V51.4837L129.632 50V60.191C131.28 58.5432 133.632 57.6817 136.336 57.6817C141.314 57.6817 145.078 60.5807 145.078 67.0112H145.074Z" fill="#012A38"/>
<path d="M171.763 57.0112V79.082H165.924V76.6513C164.396 78.494 162.16 79.3965 159.34 79.3965C153.381 79.3965 148.797 75.1642 148.797 68.5389C148.797 61.9136 153.381 57.6813 159.34 57.6813C161.928 57.6813 164.123 58.5052 165.651 60.2282V58.512L171.763 57.0078V57.0112ZM165.767 68.5389C165.767 64.8946 163.415 62.6999 160.396 62.6999C157.378 62.6999 154.988 64.8946 154.988 68.5389C154.988 72.1832 157.34 74.3779 160.396 74.3779C163.453 74.3779 165.767 72.1832 165.767 68.5389Z" fill="#012A38"/>
<path d="M190.074 57.6818V63.326C189.565 63.2884 189.172 63.2473 188.703 63.2473C185.333 63.2473 183.097 65.09 183.097 69.1274V79.0825H176.984V58.4236L182.823 57.0117V60.7791C184.314 58.7416 186.82 57.6818 190.074 57.6818Z" fill="#012A38"/>
<path d="M215.151 57.0117V75.5544C215.151 83.3934 210.918 87.0001 203.315 87.0001C199.319 87.0001 195.435 86.0189 192.967 84.1011L195.398 79.7115C197.199 81.161 200.139 82.1012 202.843 82.1012C207.154 82.1012 209.038 80.1423 209.038 76.3407V75.4382C207.431 77.2022 205.117 78.0637 202.375 78.0637C196.536 78.0637 191.832 74.0263 191.832 67.8728C191.832 61.7192 196.536 57.6818 202.375 57.6818C205.315 57.6818 207.746 58.6629 209.353 60.7004V58.4407L215.154 57.0151L215.151 57.0117ZM209.113 67.8728C209.113 64.7755 206.802 62.7003 203.585 62.7003C200.368 62.7003 198.02 64.7789 198.02 67.8728C198.02 70.9666 200.372 73.0452 203.585 73.0452C206.799 73.0452 209.113 70.9666 209.113 67.8728V67.8728Z" fill="#012A38"/>
<path d="M225.853 72.0131C226.861 73.6609 228.68 74.4984 231.121 74.4984C233.357 74.4984 234.964 73.8318 236.413 72.4609L239.668 75.989C237.709 78.2248 234.769 79.4008 230.967 79.4008C223.675 79.4008 218.934 74.8164 218.934 68.5432C218.934 62.27 223.716 57.6855 230.222 57.6855C236.051 57.6855 240.868 61.576 241.11 68.0543L225.856 72.0165M224.933 68.3962L235.237 65.9382C234.649 63.781 232.769 62.3144 230.222 62.3144C227.166 62.3144 224.933 64.2562 224.933 68.3962Z" fill="#012A38"/>
<path d="M277.13 72.0131C278.139 73.6609 279.958 74.4984 282.398 74.4984C284.634 74.4984 286.241 73.8318 287.69 72.4609L290.945 75.989C288.986 78.2248 286.046 79.4008 282.245 79.4008C274.953 79.4008 270.211 74.8164 270.211 68.5432C270.211 62.27 274.994 57.6855 281.499 57.6855C287.328 57.6855 292.145 61.576 292.388 68.0543L277.134 72.0165M276.211 68.3962L286.514 65.9382C285.926 63.781 284.046 62.3144 281.499 62.3144C278.443 62.3144 276.211 64.2562 276.211 68.3962Z" fill="#012A38"/>
<path d="M301.646 72.0131C302.654 73.6609 304.473 74.4984 306.914 74.4984C309.15 74.4984 310.757 73.8318 312.206 72.4609L315.461 75.989C313.502 78.2248 310.562 79.4008 306.76 79.4008C299.468 79.4008 294.727 74.8164 294.727 68.5432C294.727 62.27 299.509 57.6855 306.015 57.6855C311.844 57.6855 316.661 61.576 316.903 68.0543L301.649 72.0165M300.726 68.3962L311.03 65.9382C310.442 63.781 308.562 62.3144 306.015 62.3144C302.959 62.3144 300.726 64.2562 300.726 68.3962Z" fill="#012A38"/>
<path d="M267.825 68.5393C267.825 75.1646 263.241 79.3969 257.32 79.3969C254.496 79.3969 252.226 78.4944 250.695 76.6518V79.0824H244.855V51.4939L250.968 50V60.2286C252.537 58.5022 254.691 57.6817 257.316 57.6817C263.234 57.6817 267.822 61.914 267.822 68.5393H267.825ZM261.631 68.5393C261.631 64.895 259.32 62.7003 256.26 62.7003C253.2 62.7003 250.889 64.895 250.889 68.5393C250.889 72.1836 253.204 74.3784 256.26 74.3784C259.316 74.3784 261.631 72.1836 261.631 68.5393V68.5393Z" fill="#012A38"/>
<path d="M53.0977 68.5027L77.5102 62.6807V50.0215H64.851L53.0977 68.5027Z" fill="#FF3300"/>
<path d="M41 68.2811C41 69.7955 41.1846 71.2655 41.5333 72.674L53.0986 68.5033L41.4376 64.2949C41.1538 65.5769 41 66.9102 41 68.2776V68.2811Z" fill="#FF3300"/>
<path d="M45.3008 56.5105L53.0953 68.5031L56.6883 50.2031C52.1381 50.8424 48.128 53.1603 45.3008 56.5105V56.5105Z" fill="#FF3300"/>
<path d="M53.0977 68.502L77.5102 74.3205V86.9797H64.851L53.0977 68.502Z" fill="#FF3300"/>
<path d="M45.3003 80.4926L53.0948 68.5L56.6844 86.7966C52.1342 86.1573 48.1241 83.8395 45.2969 80.4892L45.3003 80.4926Z" fill="#FF3300"/>
</svg>
